<?xml version="1.0" encoding="utf-8"?>
<!-- Generator: Adobe Illustrator 27.3.1, SVG Export Plug-In . SVG Version: 6.00 Build 0)  -->
<svg version="1.1" id="Layer_2_00000054988504049884216150000006065011188027625625_"
	 xmlns="http://www.w3.org/2000/svg" xmlns:xlink="http://www.w3.org/1999/xlink" x="0px" y="0px" viewBox="0 0 676.4 399.8"
	 style="enable-background:new 0 0 676.4 399.8;" xml:space="preserve">
<style type="text/css">
	.st0{fill-rule:evenodd;clip-rule:evenodd;fill:#F15A48;}
</style>
<g id="Layer_1-2">
	<path class="fish3" fill="#f15a48" d="M537.2,382c-27.8,44.7-96.3-26-125.5-61.4c-10,18.5-49.2,78.2-135.8,78.2c-102.4,0-137.2-83.6-137.2-83.6
		s36.1-83.6,138.5-83.6c90.9,0,128.5,65.7,135.9,80.6c10.2-3,29.7-11.3,43.4-33.9c19.3-31.9,47.4-21.3,50.3-19.3
		c2.9,1.9,25.1,22.2,0,49.3C506.8,308.3,566.9,334.2,537.2,382L537.2,382z"/>
	<path class="fish2" fill="#f15a48" d="M668.3,130.6c-24,38.5-83-22.4-108.1-52.9c-8.7,15.9-42.4,67.4-117.1,67.4c-88.3,0-118.3-72-118.3-72
		S355.9,1,444.2,1C522.5,1,555,57.7,561.3,70.5c8.8-2.6,25.6-9.8,37.4-29.2c16.7-27.5,40.8-18.3,43.3-16.7c2.5,1.7,21.6,19.2,0,42.5
		C642,67.1,693.9,89.3,668.3,130.6L668.3,130.6z"/>
	<path class="fish1" fill="#f15a48" d="M244,184.8c-16.9,27.3-58.7-15.9-76.5-37.4c-6.1,11.3-30,47.7-82.8,47.7C22.2,195,1,144,1,144s22-51,84.5-51
		c55.4,0,78.4,40.1,82.9,49.2c6.2-1.8,18.1-6.9,26.5-20.7c11.8-19.4,28.9-13,30.6-11.8c1.8,1.2,15.3,13.6,0,30.1
		C225.5,139.8,262.1,155.6,244,184.8L244,184.8z"/>
</g>
</svg>
